<?xml version="1.0" encoding="UTF-8" standalone="no"?>
<!-- Created with Inkscape (http://www.inkscape.org/) -->

<svg
   width="1024"
   height="1024"
   viewBox="0 0 1024 1024"
   version="1.1"
   id="svg1"
   xml:space="preserve"
   xmlns="http://www.w3.org/2000/svg"
   xmlns:svg="http://www.w3.org/2000/svg"><defs
     id="defs1" /><g
     id="layer2"><circle
       style="display:inline;opacity:1;mix-blend-mode:normal;fill:#e5eafe;fill-opacity:1"
       id="Background"
       cx="512"
       cy="512"
       r="512" /><circle
       style="display:inline;opacity:1;fill:#6a3ffa;fill-opacity:1"
       id="Background 2"
       cx="512"
       cy="512"
       r="467" /><circle
       style="display:inline;opacity:1;fill:#a7d1fd;fill-opacity:1"
       id="Background 3"
       cx="512"
       cy="512"
       r="384" /><g
       id="g11"
       style="display:inline"><path
         d="M 605.58789,194.51367 A 127,127 0 0 1 639,280 127,127 0 0 1 512,407 127,127 0 0 1 385,280 127,127 0 0 1 418.41211,194.51367 170,170 0 0 0 342,336 170,170 0 0 0 512,506 170,170 0 0 0 682,336 170,170 0 0 0 605.58789,194.51367 Z"
         style="display:inline;opacity:1;fill:#2227cb;stroke-width:1.01907"
         id="path10" /><path
         d="m 512,181 a 98,98 0 0 0 -98,98 98,98 0 0 0 98,98 98,98 0 0 0 98,-98 98,98 0 0 0 -98,-98 z"
         style="display:inline;opacity:1;fill:#2227cb;fill-opacity:1"
         id="path11" /></g><g
       id="g13"
       transform="rotate(120,512,512)"
       style="display:inline"><path
         d="M 605.58789,194.51367 A 127,127 0 0 1 639,280 127,127 0 0 1 512,407 127,127 0 0 1 385,280 127,127 0 0 1 418.41211,194.51367 170,170 0 0 0 342,336 170,170 0 0 0 512,506 170,170 0 0 0 682,336 170,170 0 0 0 605.58789,194.51367 Z"
         style="display:inline;opacity:1;fill:#2227cb;stroke-width:1.01907"
         id="path12" /><path
         d="m 512,181 a 98,98 0 0 0 -98,98 98,98 0 0 0 98,98 98,98 0 0 0 98,-98 98,98 0 0 0 -98,-98 z"
         style="display:inline;opacity:1;fill:#2227cb;fill-opacity:1"
         id="path13" /></g><g
       id="g15"
       transform="rotate(-120,512,512)"
       style="display:inline"><path
         d="M 605.58789,194.51367 A 127,127 0 0 1 639,280 127,127 0 0 1 512,407 127,127 0 0 1 385,280 127,127 0 0 1 418.41211,194.51367 170,170 0 0 0 342,336 170,170 0 0 0 512,506 170,170 0 0 0 682,336 170,170 0 0 0 605.58789,194.51367 Z"
         style="display:inline;opacity:1;fill:#2227cb;stroke-width:1.01907"
         id="path14" /><path
         d="m 512,181 a 98,98 0 0 0 -98,98 98,98 0 0 0 98,98 98,98 0 0 0 98,-98 98,98 0 0 0 -98,-98 z"
         style="display:inline;opacity:1;fill:#2227cb;fill-opacity:1"
         id="path15" /></g><g
       id="g16"
       style="display:inline"><circle
         style="display:inline;opacity:1;fill:#ffffff;fill-opacity:0.300926"
         id="Highlight 1"
         cx="326"
         cy="303"
         r="196" /><circle
         style="display:inline;opacity:1;fill:#ffffff;fill-opacity:0.302469"
         id="Hightlight 2"
         cx="326"
         cy="303"
         r="143" /></g><path
       d="M 725.40625,46.59375 A 512,512 0 0 1 772,260 512,512 0 0 1 260,772 512,512 0 0 1 46.59375,725.40625 512,512 0 0 0 512,1024 512,512 0 0 0 1024,512 512,512 0 0 0 725.40625,46.59375 Z"
       style="display:inline;opacity:1;fill:#000000;fill-opacity:0.197802"
       id="Shadow" /></g></svg>
